<svg xmlns="http://www.w3.org/2000/svg" width="600" height="600" viewBox="0 0 600 600">
  <defs>
    <linearGradient id="bg" x1="0%" y1="0%" x2="100%" y2="100%">
      <stop offset="0%" style="stop-color:#040e1a;stop-opacity:1" />
      <stop offset="100%" style="stop-color:#071e36;stop-opacity:1" />
    </linearGradient>
    <linearGradient id="accent" x1="0%" y1="0%" x2="100%" y2="0%">
      <stop offset="0%" style="stop-color:#00d4aa;stop-opacity:1" />
      <stop offset="100%" style="stop-color:#0099cc;stop-opacity:1" />
    </linearGradient>
    <filter id="glow">
      <feGaussianBlur stdDeviation="3" result="blur"/>
      <feMerge><feMergeNode in="blur"/><feMergeNode in="SourceGraphic"/></feMerge>
    </filter>
    <clipPath id="clip"><rect width="600" height="600" rx="24"/></clipPath>
  </defs>
  <rect width="600" height="600" rx="24" fill="url(#bg)"/>
  <g clip-path="url(#clip)">
  <circle cx="30" cy="30" r="1" fill="#1a3a5c" opacity="0.6"/>
  <circle cx="30" cy="70" r="1" fill="#1a3a5c" opacity="0.6"/>
  <circle cx="30" cy="110" r="1" fill="#1a3a5c" opacity="0.6"/>
  <circle cx="30" cy="150" r="1" fill="#1a3a5c" opacity="0.6"/>
  <circle cx="30" cy="190" r="1" fill="#1a3a5c" opacity="0.6"/>
  <circle cx="30" cy="230" r="1" fill="#1a3a5c" opacity="0.6"/>
  <circle cx="30" cy="270" r="1" fill="#1a3a5c" opacity="0.6"/>
  <circle cx="30" cy="310" r="1" fill="#1a3a5c" opacity="0.6"/>
  <circle cx="30" cy="350" r="1" fill="#1a3a5c" opacity="0.6"/>
  <circle cx="30" cy="390" r="1" fill="#1a3a5c" opacity="0.6"/>
  <circle cx="30" cy="430" r="1" fill="#1a3a5c" opacity="0.6"/>
  <circle cx="30" cy="470" r="1" fill="#1a3a5c" opacity="0.6"/>
  <circle cx="30" cy="510" r="1" fill="#1a3a5c" opacity="0.6"/>
  <circle cx="30" cy="550" r="1" fill="#1a3a5c" opacity="0.6"/>
  <circle cx="70" cy="30" r="1" fill="#1a3a5c" opacity="0.6"/>
  <circle cx="70" cy="70" r="1" fill="#1a3a5c" opacity="0.6"/>
  <circle cx="70" cy="110" r="1" fill="#1a3a5c" opacity="0.6"/>
  <circle cx="70" cy="150" r="1" fill="#1a3a5c" opacity="0.6"/>
  <circle cx="70" cy="190" r="1" fill="#1a3a5c" opacity="0.6"/>
  <circle cx="70" cy="230" r="1" fill="#1a3a5c" opacity="0.6"/>
  <circle cx="70" cy="270" r="1" fill="#1a3a5c" opacity="0.6"/>
  <circle cx="70" cy="310" r="1" fill="#1a3a5c" opacity="0.6"/>
  <circle cx="70" cy="350" r="1" fill="#1a3a5c" opacity="0.6"/>
  <circle cx="70" cy="390" r="1" fill="#1a3a5c" opacity="0.6"/>
  <circle cx="70" cy="430" r="1" fill="#1a3a5c" opacity="0.6"/>
  <circle cx="70" cy="470" r="1" fill="#1a3a5c" opacity="0.6"/>
  <circle cx="70" cy="510" r="1" fill="#1a3a5c" opacity="0.6"/>
  <circle cx="70" cy="550" r="1" fill="#1a3a5c" opacity="0.6"/>
  <circle cx="110" cy="30" r="1" fill="#1a3a5c" opacity="0.6"/>
  <circle cx="110" cy="70" r="1" fill="#1a3a5c" opacity="0.6"/>
  <circle cx="110" cy="110" r="1" fill="#1a3a5c" opacity="0.6"/>
  <circle cx="110" cy="150" r="1" fill="#1a3a5c" opacity="0.6"/>
  <circle cx="110" cy="190" r="1" fill="#1a3a5c" opacity="0.6"/>
  <circle cx="110" cy="230" r="1" fill="#1a3a5c" opacity="0.6"/>
  <circle cx="110" cy="270" r="1" fill="#1a3a5c" opacity="0.6"/>
  <circle cx="110" cy="310" r="1" fill="#1a3a5c" opacity="0.6"/>
  <circle cx="110" cy="350" r="1" fill="#1a3a5c" opacity="0.6"/>
  <circle cx="110" cy="390" r="1" fill="#1a3a5c" opacity="0.6"/>
  <circle cx="110" cy="430" r="1" fill="#1a3a5c" opacity="0.6"/>
  <circle cx="110" cy="470" r="1" fill="#1a3a5c" opacity="0.6"/>
  <circle cx="110" cy="510" r="1" fill="#1a3a5c" opacity="0.6"/>
  <circle cx="110" cy="550" r="1" fill="#1a3a5c" opacity="0.6"/>
  <circle cx="150" cy="30" r="1" fill="#1a3a5c" opacity="0.6"/>
  <circle cx="150" cy="70" r="1" fill="#1a3a5c" opacity="0.6"/>
  <circle cx="150" cy="110" r="1" fill="#1a3a5c" opacity="0.6"/>
  <circle cx="150" cy="150" r="1" fill="#1a3a5c" opacity="0.6"/>
  <circle cx="150" cy="190" r="1" fill="#1a3a5c" opacity="0.6"/>
  <circle cx="150" cy="230" r="1" fill="#1a3a5c" opacity="0.6"/>
  <circle cx="150" cy="270" r="1" fill="#1a3a5c" opacity="0.6"/>
  <circle cx="150" cy="310" r="1" fill="#1a3a5c" opacity="0.6"/>
  <circle cx="150" cy="350" r="1" fill="#1a3a5c" opacity="0.6"/>
  <circle cx="150" cy="390" r="1" fill="#1a3a5c" opacity="0.6"/>
  <circle cx="150" cy="430" r="1" fill="#1a3a5c" opacity="0.6"/>
  <circle cx="150" cy="470" r="1" fill="#1a3a5c" opacity="0.6"/>
  <circle cx="150" cy="510" r="1" fill="#1a3a5c" opacity="0.6"/>
  <circle cx="150" cy="550" r="1" fill="#1a3a5c" opacity="0.6"/>
  <circle cx="190" cy="30" r="1" fill="#1a3a5c" opacity="0.6"/>
  <circle cx="190" cy="70" r="1" fill="#1a3a5c" opacity="0.6"/>
  <circle cx="190" cy="110" r="1" fill="#1a3a5c" opacity="0.6"/>
  <circle cx="190" cy="150" r="1" fill="#1a3a5c" opacity="0.6"/>
  <circle cx="190" cy="190" r="1" fill="#1a3a5c" opacity="0.6"/>
  <circle cx="190" cy="230" r="1" fill="#1a3a5c" opacity="0.6"/>
  <circle cx="190" cy="270" r="1" fill="#1a3a5c" opacity="0.6"/>
  <circle cx="190" cy="310" r="1" fill="#1a3a5c" opacity="0.6"/>
  <circle cx="190" cy="350" r="1" fill="#1a3a5c" opacity="0.6"/>
  <circle cx="190" cy="390" r="1" fill="#1a3a5c" opacity="0.6"/>
  <circle cx="190" cy="430" r="1" fill="#1a3a5c" opacity="0.6"/>
  <circle cx="190" cy="470" r="1" fill="#1a3a5c" opacity="0.6"/>
  <circle cx="190" cy="510" r="1" fill="#1a3a5c" opacity="0.6"/>
  <circle cx="190" cy="550" r="1" fill="#1a3a5c" opacity="0.6"/>
  <circle cx="230" cy="30" r="1" fill="#1a3a5c" opacity="0.6"/>
  <circle cx="230" cy="70" r="1" fill="#1a3a5c" opacity="0.6"/>
  <circle cx="230" cy="110" r="1" fill="#1a3a5c" opacity="0.6"/>
  <circle cx="230" cy="150" r="1" fill="#1a3a5c" opacity="0.6"/>
  <circle cx="230" cy="190" r="1" fill="#1a3a5c" opacity="0.6"/>
  <circle cx="230" cy="230" r="1" fill="#1a3a5c" opacity="0.6"/>
  <circle cx="230" cy="270" r="1" fill="#1a3a5c" opacity="0.6"/>
  <circle cx="230" cy="310" r="1" fill="#1a3a5c" opacity="0.6"/>
  <circle cx="230" cy="350" r="1" fill="#1a3a5c" opacity="0.6"/>
  <circle cx="230" cy="390" r="1" fill="#1a3a5c" opacity="0.6"/>
  <circle cx="230" cy="430" r="1" fill="#1a3a5c" opacity="0.6"/>
  <circle cx="230" cy="470" r="1" fill="#1a3a5c" opacity="0.6"/>
  <circle cx="230" cy="510" r="1" fill="#1a3a5c" opacity="0.6"/>
  <circle cx="230" cy="550" r="1" fill="#1a3a5c" opacity="0.6"/>
  <circle cx="270" cy="30" r="1" fill="#1a3a5c" opacity="0.6"/>
  <circle cx="270" cy="70" r="1" fill="#1a3a5c" opacity="0.6"/>
  <circle cx="270" cy="110" r="1" fill="#1a3a5c" opacity="0.6"/>
  <circle cx="270" cy="150" r="1" fill="#1a3a5c" opacity="0.6"/>
  <circle cx="270" cy="190" r="1" fill="#1a3a5c" opacity="0.6"/>
  <circle cx="270" cy="230" r="1" fill="#1a3a5c" opacity="0.6"/>
  <circle cx="270" cy="270" r="1" fill="#1a3a5c" opacity="0.6"/>
  <circle cx="270" cy="310" r="1" fill="#1a3a5c" opacity="0.6"/>
  <circle cx="270" cy="350" r="1" fill="#1a3a5c" opacity="0.6"/>
  <circle cx="270" cy="390" r="1" fill="#1a3a5c" opacity="0.6"/>
  <circle cx="270" cy="430" r="1" fill="#1a3a5c" opacity="0.6"/>
  <circle cx="270" cy="470" r="1" fill="#1a3a5c" opacity="0.6"/>
  <circle cx="270" cy="510" r="1" fill="#1a3a5c" opacity="0.6"/>
  <circle cx="270" cy="550" r="1" fill="#1a3a5c" opacity="0.6"/>
  <circle cx="310" cy="30" r="1" fill="#1a3a5c" opacity="0.6"/>
  <circle cx="310" cy="70" r="1" fill="#1a3a5c" opacity="0.6"/>
  <circle cx="310" cy="110" r="1" fill="#1a3a5c" opacity="0.6"/>
  <circle cx="310" cy="150" r="1" fill="#1a3a5c" opacity="0.6"/>
  <circle cx="310" cy="190" r="1" fill="#1a3a5c" opacity="0.6"/>
  <circle cx="310" cy="230" r="1" fill="#1a3a5c" opacity="0.6"/>
  <circle cx="310" cy="270" r="1" fill="#1a3a5c" opacity="0.6"/>
  <circle cx="310" cy="310" r="1" fill="#1a3a5c" opacity="0.6"/>
  <circle cx="310" cy="350" r="1" fill="#1a3a5c" opacity="0.6"/>
  <circle cx="310" cy="390" r="1" fill="#1a3a5c" opacity="0.6"/>
  <circle cx="310" cy="430" r="1" fill="#1a3a5c" opacity="0.6"/>
  <circle cx="310" cy="470" r="1" fill="#1a3a5c" opacity="0.6"/>
  <circle cx="310" cy="510" r="1" fill="#1a3a5c" opacity="0.6"/>
  <circle cx="310" cy="550" r="1" fill="#1a3a5c" opacity="0.6"/>
  <circle cx="350" cy="30" r="1" fill="#1a3a5c" opacity="0.6"/>
  <circle cx="350" cy="70" r="1" fill="#1a3a5c" opacity="0.6"/>
  <circle cx="350" cy="110" r="1" fill="#1a3a5c" opacity="0.6"/>
  <circle cx="350" cy="150" r="1" fill="#1a3a5c" opacity="0.6"/>
  <circle cx="350" cy="190" r="1" fill="#1a3a5c" opacity="0.6"/>
  <circle cx="350" cy="230" r="1" fill="#1a3a5c" opacity="0.6"/>
  <circle cx="350" cy="270" r="1" fill="#1a3a5c" opacity="0.6"/>
  <circle cx="350" cy="310" r="1" fill="#1a3a5c" opacity="0.6"/>
  <circle cx="350" cy="350" r="1" fill="#1a3a5c" opacity="0.6"/>
  <circle cx="350" cy="390" r="1" fill="#1a3a5c" opacity="0.6"/>
  <circle cx="350" cy="430" r="1" fill="#1a3a5c" opacity="0.6"/>
  <circle cx="350" cy="470" r="1" fill="#1a3a5c" opacity="0.6"/>
  <circle cx="350" cy="510" r="1" fill="#1a3a5c" opacity="0.6"/>
  <circle cx="350" cy="550" r="1" fill="#1a3a5c" opacity="0.6"/>
  <circle cx="390" cy="30" r="1" fill="#1a3a5c" opacity="0.6"/>
  <circle cx="390" cy="70" r="1" fill="#1a3a5c" opacity="0.6"/>
  <circle cx="390" cy="110" r="1" fill="#1a3a5c" opacity="0.6"/>
  <circle cx="390" cy="150" r="1" fill="#1a3a5c" opacity="0.6"/>
  <circle cx="390" cy="190" r="1" fill="#1a3a5c" opacity="0.6"/>
  <circle cx="390" cy="230" r="1" fill="#1a3a5c" opacity="0.6"/>
  <circle cx="390" cy="270" r="1" fill="#1a3a5c" opacity="0.6"/>
  <circle cx="390" cy="310" r="1" fill="#1a3a5c" opacity="0.6"/>
  <circle cx="390" cy="350" r="1" fill="#1a3a5c" opacity="0.6"/>
  <circle cx="390" cy="390" r="1" fill="#1a3a5c" opacity="0.6"/>
  <circle cx="390" cy="430" r="1" fill="#1a3a5c" opacity="0.6"/>
  <circle cx="390" cy="470" r="1" fill="#1a3a5c" opacity="0.6"/>
  <circle cx="390" cy="510" r="1" fill="#1a3a5c" opacity="0.6"/>
  <circle cx="390" cy="550" r="1" fill="#1a3a5c" opacity="0.6"/>
  <circle cx="430" cy="30" r="1" fill="#1a3a5c" opacity="0.6"/>
  <circle cx="430" cy="70" r="1" fill="#1a3a5c" opacity="0.6"/>
  <circle cx="430" cy="110" r="1" fill="#1a3a5c" opacity="0.6"/>
  <circle cx="430" cy="150" r="1" fill="#1a3a5c" opacity="0.6"/>
  <circle cx="430" cy="190" r="1" fill="#1a3a5c" opacity="0.6"/>
  <circle cx="430" cy="230" r="1" fill="#1a3a5c" opacity="0.6"/>
  <circle cx="430" cy="270" r="1" fill="#1a3a5c" opacity="0.6"/>
  <circle cx="430" cy="310" r="1" fill="#1a3a5c" opacity="0.6"/>
  <circle cx="430" cy="350" r="1" fill="#1a3a5c" opacity="0.6"/>
  <circle cx="430" cy="390" r="1" fill="#1a3a5c" opacity="0.6"/>
  <circle cx="430" cy="430" r="1" fill="#1a3a5c" opacity="0.6"/>
  <circle cx="430" cy="470" r="1" fill="#1a3a5c" opacity="0.6"/>
  <circle cx="430" cy="510" r="1" fill="#1a3a5c" opacity="0.6"/>
  <circle cx="430" cy="550" r="1" fill="#1a3a5c" opacity="0.6"/>
  <circle cx="470" cy="30" r="1" fill="#1a3a5c" opacity="0.6"/>
  <circle cx="470" cy="70" r="1" fill="#1a3a5c" opacity="0.6"/>
  <circle cx="470" cy="110" r="1" fill="#1a3a5c" opacity="0.6"/>
  <circle cx="470" cy="150" r="1" fill="#1a3a5c" opacity="0.6"/>
  <circle cx="470" cy="190" r="1" fill="#1a3a5c" opacity="0.6"/>
  <circle cx="470" cy="230" r="1" fill="#1a3a5c" opacity="0.6"/>
  <circle cx="470" cy="270" r="1" fill="#1a3a5c" opacity="0.6"/>
  <circle cx="470" cy="310" r="1" fill="#1a3a5c" opacity="0.6"/>
  <circle cx="470" cy="350" r="1" fill="#1a3a5c" opacity="0.6"/>
  <circle cx="470" cy="390" r="1" fill="#1a3a5c" opacity="0.6"/>
  <circle cx="470" cy="430" r="1" fill="#1a3a5c" opacity="0.6"/>
  <circle cx="470" cy="470" r="1" fill="#1a3a5c" opacity="0.6"/>
  <circle cx="470" cy="510" r="1" fill="#1a3a5c" opacity="0.6"/>
  <circle cx="470" cy="550" r="1" fill="#1a3a5c" opacity="0.6"/>
  <circle cx="510" cy="30" r="1" fill="#1a3a5c" opacity="0.6"/>
  <circle cx="510" cy="70" r="1" fill="#1a3a5c" opacity="0.6"/>
  <circle cx="510" cy="110" r="1" fill="#1a3a5c" opacity="0.6"/>
  <circle cx="510" cy="150" r="1" fill="#1a3a5c" opacity="0.6"/>
  <circle cx="510" cy="190" r="1" fill="#1a3a5c" opacity="0.6"/>
  <circle cx="510" cy="230" r="1" fill="#1a3a5c" opacity="0.6"/>
  <circle cx="510" cy="270" r="1" fill="#1a3a5c" opacity="0.6"/>
  <circle cx="510" cy="310" r="1" fill="#1a3a5c" opacity="0.6"/>
  <circle cx="510" cy="350" r="1" fill="#1a3a5c" opacity="0.6"/>
  <circle cx="510" cy="390" r="1" fill="#1a3a5c" opacity="0.6"/>
  <circle cx="510" cy="430" r="1" fill="#1a3a5c" opacity="0.6"/>
  <circle cx="510" cy="470" r="1" fill="#1a3a5c" opacity="0.6"/>
  <circle cx="510" cy="510" r="1" fill="#1a3a5c" opacity="0.6"/>
  <circle cx="510" cy="550" r="1" fill="#1a3a5c" opacity="0.6"/>
  <circle cx="550" cy="30" r="1" fill="#1a3a5c" opacity="0.6"/>
  <circle cx="550" cy="70" r="1" fill="#1a3a5c" opacity="0.6"/>
  <circle cx="550" cy="110" r="1" fill="#1a3a5c" opacity="0.6"/>
  <circle cx="550" cy="150" r="1" fill="#1a3a5c" opacity="0.6"/>
  <circle cx="550" cy="190" r="1" fill="#1a3a5c" opacity="0.6"/>
  <circle cx="550" cy="230" r="1" fill="#1a3a5c" opacity="0.6"/>
  <circle cx="550" cy="270" r="1" fill="#1a3a5c" opacity="0.6"/>
  <circle cx="550" cy="310" r="1" fill="#1a3a5c" opacity="0.6"/>
  <circle cx="550" cy="350" r="1" fill="#1a3a5c" opacity="0.6"/>
  <circle cx="550" cy="390" r="1" fill="#1a3a5c" opacity="0.6"/>
  <circle cx="550" cy="430" r="1" fill="#1a3a5c" opacity="0.6"/>
  <circle cx="550" cy="470" r="1" fill="#1a3a5c" opacity="0.6"/>
  <circle cx="550" cy="510" r="1" fill="#1a3a5c" opacity="0.6"/>
  <circle cx="550" cy="550" r="1" fill="#1a3a5c" opacity="0.6"/>
  <rect x="0" y="0" width="600" height="6" fill="url(#accent)"/>
  <polyline points="0,80 40,80 40,40 80,40" fill="none" stroke="#00d4aa" stroke-width="1.5" opacity="0.4"/>
  <polyline points="600,80 560,80 560,40 520,40" fill="none" stroke="#00d4aa" stroke-width="1.5" opacity="0.4"/>
  <polyline points="0,520 40,520 40,560 80,560" fill="none" stroke="#00d4aa" stroke-width="1.5" opacity="0.4"/>
  <polyline points="600,520 560,520 560,560 520,560" fill="none" stroke="#00d4aa" stroke-width="1.5" opacity="0.4"/>
  <text x="300" y="80" font-family="'Courier New',monospace" font-size="11" fill="#00d4aa" opacity="0.7" text-anchor="middle" letter-spacing="6">STLLC INVESTMENT PORTAL</text>
  <rect x="60" y="95" width="480" height="1" fill="#00d4aa" opacity="0.2"/>
  <text x="300" y="145" font-family="Arial Black,sans-serif" font-size="38" fill="#ffffff" text-anchor="middle" font-weight="900" letter-spacing="4">DEAL NOTE</text>
  <text x="300" y="172" font-family="'Courier New',monospace" font-size="13" fill="#00d4aa" text-anchor="middle" letter-spacing="3">ST-DEAL-013</text>
  <rect x="258" y="182" width="84" height="22" rx="11" fill="#00d4aa" opacity="0.15"/>
  <text x="300" y="197" font-family="'Courier New',monospace" font-size="11" fill="#00d4aa" text-anchor="middle" letter-spacing="2">TOKEN #005</text>
  <rect x="60" y="215" width="480" height="1.5" fill="url(#accent)" opacity="0.5"/>
  <text x="300" y="290" font-family="Arial Black,sans-serif" font-size="96" fill="url(#accent)" text-anchor="middle" font-weight="900" filter="url(#glow)">6%</text>
  <text x="300" y="318" font-family="Arial,sans-serif" font-size="14" fill="#7ab8cc" text-anchor="middle" letter-spacing="4">ANNUALIZED YIELD</text>
  <rect x="60" y="340" width="480" height="1" fill="#1a3a5c"/>
  <rect x="60" y="355" width="150" height="70" rx="8" fill="#0a1e30"/>
  <text x="135" y="380" font-family="Arial,sans-serif" font-size="10" fill="#7ab8cc" text-anchor="middle" letter-spacing="2">FACE VALUE</text>
  <text x="135" y="408" font-family="Arial Black,sans-serif" font-size="22" fill="#ffffff" text-anchor="middle">$500</text>
  <rect x="225" y="355" width="150" height="70" rx="8" fill="#0a1e30"/>
  <text x="300" y="380" font-family="Arial,sans-serif" font-size="10" fill="#7ab8cc" text-anchor="middle" letter-spacing="2">RETURN</text>
  <text x="300" y="408" font-family="Arial Black,sans-serif" font-size="22" fill="#00d4aa" text-anchor="middle">$530</text>
  <rect x="390" y="355" width="150" height="70" rx="8" fill="#0a1e30"/>
  <text x="465" y="380" font-family="Arial,sans-serif" font-size="10" fill="#7ab8cc" text-anchor="middle" letter-spacing="2">PROFIT</text>
  <text x="465" y="408" font-family="Arial Black,sans-serif" font-size="22" fill="#00ff88" text-anchor="middle">+$30</text>
  <rect x="60" y="438" width="225" height="55" rx="8" fill="#071525"/>
  <text x="172" y="460" font-family="Arial,sans-serif" font-size="10" fill="#7ab8cc" text-anchor="middle" letter-spacing="2">TERM</text>
  <text x="172" y="483" font-family="Arial Black,sans-serif" font-size="20" fill="#ffffff" text-anchor="middle">6 MONTHS</text>
  <rect x="315" y="438" width="225" height="55" rx="8" fill="#071525"/>
  <text x="427" y="460" font-family="Arial,sans-serif" font-size="10" fill="#7ab8cc" text-anchor="middle" letter-spacing="2">EST. PROPERTY ARV</text>
  <text x="427" y="483" font-family="Arial Black,sans-serif" font-size="20" fill="#ffffff" text-anchor="middle">$550K</text>
  <rect x="60" y="510" width="480" height="1" fill="#1a3a5c"/>
  <text x="300" y="535" font-family="'Courier New',monospace" font-size="10" fill="#3a6a8a" text-anchor="middle">Reg D 506(c) · Accredited Investors Only · Polygon Mainnet</text>
  <text x="300" y="555" font-family="'Courier New',monospace" font-size="9" fill="#2a4a6a" text-anchor="middle">0x364621d5b4f77feF957708F0A35cB674A8bf19a9</text>
  <rect x="0" y="594" width="600" height="6" fill="url(#accent)"/>
  </g>
</svg>